# xmcd
#
# Track frame offsets:
#	150
#	49905
#	58845
#	61492
#	114462
#	146079
#	178043
#	194574
#	213720
#	216557
#	234281
#	266370
#	269873
#	307203
#	311489
#	333882
#	356029
#
# Disc length: 4806 seconds
#
# Revision: 1
# Processed by: cddbd v1.5.2PL0 Copyright (c) Steve Scherf et al.
# Submitted via: audiograbber 1.83.01
#
DISCID=2312c411
DTITLE=Grateful Dead - 69-05-03 Winterland Arena, San Francisco CA
DYEAR=1900
DGENRE=
TTITLE0=He Was A Friend
TTITLE1=Cryptical Envelopment
TTITLE2=Drums
TTITLE3=The Other One
TTITLE4=Cryptial Envelopment
TTITLE5=Doing That Rag
TTITLE6=Me and My Uncle
TTITLE7=Casey Jones
TTITLE8="Turn Up The Monitors"
TTITLE9=Dire Wolf
TTITLE10=High Time
TTITLE11=Tuning
TTITLE12=Easy Wind
TTITLE13=Tuning
TTITLE14=China Cat Sunflower
TTITLE15=I Know You Rider
TTITLE16="Hey Man, Turn The Microphones On"
EXTD=
EXTT0=
EXTT1=
EXTT2=
EXTT3=
EXTT4=
EXTT5=
EXTT6=
EXTT7=
EXTT8=
EXTT9=
EXTT10=
EXTT11=
EXTT12=
EXTT13=
EXTT14=
EXTT15=
EXTT16=
PLAYORDER=
